<svg xmlns="http://www.w3.org/2000/svg" width="1122.52" height="793.707"><defs><clipPath id="a" clipPathUnits="userSpaceOnUse"><path d="M-280.883 309.95h841.89v-595.28h-841.89Z"/></clipPath><clipPath id="b" clipPathUnits="userSpaceOnUse"><path d="M-84.114 374.771h841.89v-595.28h-841.89Z"/></clipPath><clipPath id="c" clipPathUnits="userSpaceOnUse"><path d="M-728.133 401.217h841.89v-595.28h-841.89Z"/></clipPath><clipPath id="d" clipPathUnits="userSpaceOnUse"><path d="M-561.359 366.35h841.89v-595.28h-841.89Z"/></clipPath><clipPath id="e" clipPathUnits="userSpaceOnUse"><path d="M-591.043 414.746h841.89v-595.28h-841.89Z"/></clipPath><clipPath id="f" clipPathUnits="userSpaceOnUse"><path d="M-295.72 366.69h841.89v-595.28h-841.89Z"/></clipPath><clipPath id="g" clipPathUnits="userSpaceOnUse"><path d="M-235.976 391.597h841.89v-595.28h-841.89Z"/></clipPath><clipPath id="h" clipPathUnits="userSpaceOnUse"><path d="M-422.257 362.75h841.89v-595.28h-841.89Z"/></clipPath><clipPath id="i" clipPathUnits="userSpaceOnUse"><path d="M-509.563 211.65h841.89v-595.28h-841.89Z"/></clipPath><clipPath id="j" clipPathUnits="userSpaceOnUse"><path d="M-506.027 240.39h841.89v-595.28h-841.89Z"/></clipPath></defs><path d="M0 0c3.837 1.829 7.385 3.598 10.995 5.227 12.733 5.747 25.945 10.148 39.384 13.906 16.567 4.633 33.429 7.787 50.482 9.909 10.906 1.358 21.864 2.16 32.857 2.551 9.008.321 18.013.412 27.015.098 10.147-.354 20.269-1.074 30.384-2.072 17.933-1.769 35.655-4.729 53.239-8.578 12.581-2.754 25.028-6.035 37.63-9.862-1.819-.928-3.477-1.714-5.079-2.602-6.621-3.668-13.247-7.328-19.817-11.086-1.388-.794-2.514-.965-4.057-.352-8.109 3.22-16.42 5.844-24.815 8.227-7.979 2.265-15.968 4.48-24.096 6.135-6.066 1.236-12.113 2.542-18.242 3.52-4.793.765-9.582 1.691-14.397 2.355-12.972 1.788-25.996 3.115-39.097 3.408-6.917.155-13.832.519-20.755.273-11.669-.416-23.339-.879-34.923-2.419-7.099-.945-14.195-1.928-21.239-3.283C37.314 11.863 19.569 6.963 2.336.246 1.86.06 1.372-.104.877-.229.722-.268.526-.145 0 0" clip-path="url(#a)" style="fill:#0d4b84;fill-opacity:1;fill-rule:nonzero;stroke:none" transform="matrix(1.33333 0 0 -1.33333 374.51 413.267)"/><path d="M0 0v-40.001h-11.508v65.669c3.38 0 6.762-.014 10.144.01.863.006 1.016-.685 1.318-1.207C6.572 13.018 13.174 1.556 19.788-9.9c2.985-5.171 5.988-10.332 8.988-15.495.154-.265.358-.501.68-.944 2.466 4.254 4.841 8.335 7.201 12.426C40.946-6.476 45.222.969 49.512 8.405c3.044 5.275 6.141 10.52 9.12 15.831.629 1.122 1.313 1.508 2.569 1.469 3.018-.093 6.04-.03 9.207-.03v-65.626H58.807V.075l-.362.13c-1.62-2.777-3.249-5.55-4.86-8.334-5.91-10.215-11.824-20.428-17.703-30.661-.536-.933-1.11-1.37-2.25-1.332-2.83.096-5.666.073-8.498.011-1.011-.022-1.571.257-2.107 1.191-5.454 9.515-10.976 18.991-16.481 28.478C4.502-6.919 2.453-3.398.407.124L0 0" clip-path="url(#b)" style="fill:#0d4b84;fill-opacity:1;fill-rule:nonzero;stroke:none" transform="matrix(1.33333 0 0 -1.33333 112.152 499.695)"/><path d="M0 0c3.946 6.821 7.706 13.315 11.46 19.813 4.3 7.441 8.593 14.887 12.889 22.33 1.662 2.879 3.362 5.737 4.966 8.648.523.947 1.087 1.393 2.232 1.361 3.079-.086 6.164-.029 9.226-.029.373-1.928.526-56.131.198-65.631H29.348v40.062c-.827-.258-.953-1.021-1.264-1.557A9872.929 9872.929 0 0 1 6.586-12.179c-.612-1.066-1.225-1.563-2.527-1.502-2.698.126-5.408.101-8.108.009-1.169-.04-1.851.294-2.445 1.335-4.224 7.412-8.509 14.789-12.78 22.173-3.23 5.586-6.468 11.167-9.942 17.164v-40.527h-11.793v65.636c3.448 0 6.904.008 10.359-.005.824-.003.96-.777 1.262-1.298 7.754-13.392 15.492-26.793 23.235-40.191C-4.163 7.172-2.164 3.734 0 0" clip-path="url(#c)" style="fill:#0d4b84;fill-opacity:1;fill-rule:nonzero;stroke:none" transform="matrix(1.33333 0 0 -1.33333 970.844 534.957)"/><path d="m0 0-10.352-5.015C-15.656 3.33-24.004 5.015-32.844 5.483c-5.917.313-11.826.135-17.677-1.009-10.07-1.969-14.817-7.073-15.905-17.259-.309-2.894-.148-5.791.411-8.648 1.375-7.026 5.458-11.733 12.39-13.561 10.505-2.771 21.117-2.707 31.683-.304 3.292.748 6.191 2.452 8.608 4.898.725.734 1.094 1.491 1.056 2.551-.072 2.037-.021 4.078-.021 6.28h-27.094v11.778h5.073c10.75 0 21.5-.016 32.251.023 1.205.005 1.735-.173 1.715-1.581-.113-7.827-.125-15.655-.155-23.483-.017-4.492-.003-8.983-.003-13.578h-11.782v4.356c-2.925-1.198-5.659-2.257-8.519-2.833-11.363-2.288-22.743-2.499-34.047.278-16.419 4.033-22.787 15.034-23.327 28.464-.251 6.226.258 12.343 2.96 18.081 4.067 8.635 11.29 13.264 20.239 15.378 12.42 2.935 24.863 2.99 37.134-.842C-10.782 12.263-4.98 8.165-.87 1.881-.529 1.361-.035.898 0 0" clip-path="url(#d)" style="fill:#0d4b84;fill-opacity:1;fill-rule:nonzero;stroke:none" transform="matrix(1.33333 0 0 -1.33333 748.478 488.467)"/><path d="M0 0v65.554h65.776V53.975H11.758V38.626h54.015V26.954h-53.95V11.537h53.958V0Z" clip-path="url(#e)" style="fill:#0d4b84;fill-opacity:1;fill-rule:nonzero;stroke:none" transform="matrix(1.33333 0 0 -1.33333 788.057 552.994)"/><path d="M0 0v-48.024h-11.734v65.619c3.311 0 6.578-.018 9.844.014.754.007 1.158-.454 1.623-.892a501641.68 501641.68 0 0 1 33.56-31.64c5.285-4.983 10.567-9.967 15.855-14.946.219-.206.477-.369.924-.71v48.012h11.702v-65.599c-3.378 0-6.765-.007-10.151.006-.662.002-.951.603-1.36.986C37.082-34.805 23.907-22.431 10.73-10.059 7.277-6.817 3.819-3.58 0 0" clip-path="url(#f)" style="fill:#0d4b84;fill-opacity:1;fill-rule:nonzero;stroke:none" transform="matrix(1.33333 0 0 -1.33333 394.294 488.92)"/><path d="m0 0-16.767 28.838L-33.466 0Zm-60.369-23.264c3.489 6.042 6.825 11.789 10.132 17.553 5.992 10.444 11.891 20.942 17.979 31.329 3.014 5.144 6.071 10.261 8.942 15.487.514.936 1.177 1.487 2.426 1.432 2.826-.124 5.662-.077 8.492-.015.949.021 1.495-.272 1.977-1.107C1.901 20.071 14.248-1.257 26.585-22.592c.086-.149.078-.352.143-.671-4.174 0-8.277.026-12.379-.02-.914-.011-1.21.562-1.566 1.169-1.745 2.971-3.535 5.917-5.209 8.928-.611 1.099-1.327 1.472-2.59 1.467a6609.963 6609.963 0 0 0-43.631 0c-1.214.004-1.829-.438-2.39-1.435-1.666-2.958-3.461-5.845-5.127-8.803-.53-.94-1.099-1.362-2.237-1.338-3.858.081-7.719.031-11.968.031" clip-path="url(#g)" style="fill:#0d4b84;fill-opacity:1;fill-rule:nonzero;stroke:none" transform="matrix(1.33333 0 0 -1.33333 314.634 522.129)"/><path d="m0 0-16.691-28.812h33.43L0 0m-43.582-52.108c2.013 3.514 3.871 6.78 5.75 10.035C-27.411-24.021-16.975-5.977-6.583 12.092c.646 1.121 1.304 1.664 2.676 1.601 2.761-.127 5.533-.084 8.299-.018.974.023 1.504-.328 1.977-1.147C16.472-4.988 26.597-22.491 36.72-39.995c2.273-3.931 4.553-7.858 7.019-12.115-3.416 0-6.606.252-9.736-.073-2.951-.306-4.565.759-5.768 3.357-1.127 2.436-2.708 4.659-4.029 7.01-.492.875-1.059 1.249-2.118 1.246a8072.55 8072.55 0 0 0-44.016.003c-1.129.003-1.735-.385-2.27-1.33-1.709-3.017-3.497-5.99-5.262-8.975-.348-.59-.57-1.261-1.506-1.252-4.096.037-8.193.016-12.616.016" clip-path="url(#h)" style="fill:#0d4b84;fill-opacity:1;fill-rule:nonzero;stroke:none" transform="matrix(1.33333 0 0 -1.33333 563.01 483.667)"/><path d="m0 0-8.09-11.891c-2.853 3.073-5.526 6.013-8.432 8.731-10.859 10.155-23.346 17.359-37.794 21.079-7.22 1.859-14.54 3.111-21.982 3.454-4.724.218-9.445.579-14.187.45-27.551-.747-52.003-9.8-73.111-27.532-17.363-14.586-29.445-32.782-36.303-54.424-.134-.423-.087-1.046-.914-1.302 1.142 5.672 2.663 11.102 4.683 16.381 12.415 32.449 34.625 55.416 66.824 68.525 13.083 5.327 26.806 7.706 40.944 7.88 12.844.158 25.548-.868 38.056-3.874 18.719-4.499 35.445-12.742 49.273-26.385C-.716.779-.421.445 0 0" clip-path="url(#i)" style="fill:#0d4b84;fill-opacity:1;fill-rule:nonzero;stroke:none" transform="matrix(1.33333 0 0 -1.33333 679.417 282.2)"/><path d="M0 0c-.204 13.353 11.555 23.858 24.05 23.582 12.857-.283 23.698-10.94 23.39-23.793-.322-13.438-9.953-23.528-23.83-23.794C11.33-24.24-.249-13.997 0 0" clip-path="url(#j)" style="fill:#f9bb0f;fill-opacity:1;fill-rule:nonzero;stroke:none" transform="matrix(1.33333 0 0 -1.33333 674.702 320.519)"/></svg>