<svg version="1.1" id="Layer_2" xmlns="http://www.w3.org/2000/svg" x="0px" y="0px" viewBox="0 0 500 500" style="enable-background:new 0 0 500 500" xml:space="preserve"><style>.st0{fill:#00338E}</style><path class="st0" d="M78.1,194.5v63.7c0,0,0,0.1,0,0.2c-0.2,6.8,1.4,21.1-11.9,21.4c-14.8,0.5-14.4-12.1-14.3-17.7	c-14.8,1-39.5,1.9-39.5,1.9s-0.3,22.2,15.4,32.2s34.8,9.1,43,9.1s31.7-2.9,43-20c5.5-8.3,5.5-27.1,5.5-27.1v-63.7H78.1z"/><polygon class="st0" points="217.9,216.8 217.9,194.5 176.4,194.5 135.2,194.5 135.2,305.9 176.4,305.9 217.9,305.9 217.9,281.9 176.4,281.9 176.4,259.2 217.9,259.2 217.9,236.9 176.4,236.9 176.4,216.8"/><path class="st0" d="M302.5,228.3l38.5-1.8c0,0-1.4-28.3-39.1-31.4s-51.6,3.7-60,9.9c-8.3,6.2-10.8,15.3-10.8,20.7	c0,5.4-0.9,16.4,22.7,27.1c0,0,15.7,5.4,27.4,7.2c11.7,1.8,24,4.6,24.4,13.5c0.4,8.8-11.7,11.1-18.4,11.2	c-6.7,0.1-20.7-3.1-22.6-18.3c-14,0.7-38.9,1.6-38.9,1.6s2.2,23.5,21.7,31.3c19.5,7.8,50,7.3,63,4.2s35.6-13.3,34.9-36.2	s-29.5-30.6-53-34.6s-23.6-5.7-24-10.6c-0.3-4.1,8.5-9.4,17.2-8.3C293.6,214.8,299.9,218,302.5,228.3z"/><polygon class="st0" points="341,305.9 392.3,194.3 438.2,194.3 489.2,305.9 445.2,305.9 438.5,287.2 398.3,287.2 407.6,263.2 429.8,263.2 414.7,223.3 384.4,305.9"/></svg>