<?xml version="1.0" encoding="utf-8"?>
<svg version="1.1" xmlns="http://www.w3.org/2000/svg" viewBox="0 0 130 125" xml:space="preserve">
<style type="text/css">
	.st0{fill:#C00F1A;}
	.st1{fill:#252D4B;}
	.st2{fill:#6F6F6F;}
	.st3{fill:#B8B7B6;}
</style>
<g>
	<path class="st0" d="M99.41,72.25c1.4,1.4,1.4,3.7,0,5.1L80.05,96.72c-1.4,1.4-3.7,1.4-5.1,0L55.58,77.36c-1.4-1.4-1.4-3.7,0-5.1
		l19.36-19.36c1.4-1.4,3.7-1.4,5.1,0L99.41,72.25z"/>
	<path class="st1" d="M61.95,33.49c2.38,0,5.71-1.38,7.39-3.06l4.84-4.84c1.68-1.68,4.44-1.68,6.13,0l4.84,4.84
		c1.68,1.68,5.01,3.06,7.39,3.06h10.64c2.38,0,4.36-0.03,4.4-0.06c0.04-0.04-1.31-1.44-3-3.13L80.31,6.02
		c-1.68-1.68-4.44-1.68-6.13,0L49.91,30.29c-1.68,1.68-3.03,3.09-3,3.13c0.04,0.04,2.01,0.06,4.4,0.06H61.95z"/>
	<path class="st2" d="M92.55,114.94c-2.38,0-5.71,1.38-7.39,3.06l-4.84,4.84c-1.68,1.68-4.44,1.68-6.13,0L69.34,118
		c-1.68-1.68-5.01-3.06-7.39-3.06H51.31c-2.38,0-4.36,0.03-4.4,0.06s1.31,1.44,3,3.13l24.28,24.28c1.68,1.68,4.44,1.68,6.13,0
		l24.28-24.28c1.68-1.68,3.03-3.09,3-3.13c-0.04-0.04-2.01-0.06-4.4-0.06H92.55z"/>
	<path class="st3" d="M37.81,89.68c0-2.38-1.38-5.71-3.06-7.39l-4.84-4.84c-1.68-1.68-1.68-4.44,0-6.13l4.84-4.84
		c1.68-1.68,3.06-5.01,3.06-7.39V48.44c0-2.38-0.03-4.36-0.06-4.4s-1.44,1.31-3.13,3L10.34,71.32c-1.68,1.68-1.68,4.44,0,6.13
		l24.28,24.28c1.68,1.68,3.09,3.03,3.13,3s0.06-2.01,0.06-4.4V89.68z"/>
	<path class="st3" d="M117.58,59.08c0,2.38,1.38,5.71,3.06,7.39l4.84,4.84c1.68,1.68,1.68,4.44,0,6.13l-4.84,4.84
		c-1.68,1.68-3.06,5.01-3.06,7.39v10.64c0,2.38,0.03,4.36,0.06,4.4c0.04,0.04,1.44-1.31,3.13-3l24.28-24.28
		c1.68-1.68,1.68-4.44,0-6.13l-24.28-24.28c-1.68-1.68-3.09-3.03-3.13-3s-0.06,2.01-0.06,4.4V59.08z"/>
</g>
</svg>
