<?xml version="1.0" encoding="utf-8"?>
<!-- Generator: Adobe Illustrator 24.3.0, SVG Export Plug-In . SVG Version: 6.00 Build 0)  -->
<svg version="1.1" id="Calque_1" xmlns="http://www.w3.org/2000/svg" xmlns:xlink="http://www.w3.org/1999/xlink" x="0px" y="0px"
	 viewBox="0 0 510.69 147.97" style="enable-background:new 0 0 510.69 147.97;" xml:space="preserve">
<style type="text/css">
	.st0{fill:#C00F1A;}
	.st1{fill:#252D4B;}
	.st2{fill:#6F6F6F;}
	.st3{fill:#B8B7B6;}
	.st4{fill:#222221;}
</style>
<g>
	<g>
		<g>
			<path class="st0" d="M99.41,72.25c1.4,1.4,1.4,3.7,0,5.1L80.05,96.72c-1.4,1.4-3.7,1.4-5.1,0L55.58,77.36c-1.4-1.4-1.4-3.7,0-5.1
				l19.36-19.36c1.4-1.4,3.7-1.4,5.1,0L99.41,72.25z"/>
			<path class="st1" d="M61.95,33.49c2.38,0,5.71-1.38,7.39-3.06l4.84-4.84c1.68-1.68,4.44-1.68,6.13,0l4.84,4.84
				c1.68,1.68,5.01,3.06,7.39,3.06h10.64c2.38,0,4.36-0.03,4.4-0.06c0.04-0.04-1.31-1.44-3-3.13L80.31,6.02
				c-1.68-1.68-4.44-1.68-6.13,0L49.91,30.29c-1.68,1.68-3.03,3.09-3,3.13c0.04,0.04,2.01,0.06,4.4,0.06H61.95z"/>
			<path class="st2" d="M92.55,114.94c-2.38,0-5.71,1.38-7.39,3.06l-4.84,4.84c-1.68,1.68-4.44,1.68-6.13,0L69.34,118
				c-1.68-1.68-5.01-3.06-7.39-3.06H51.31c-2.38,0-4.36,0.03-4.4,0.06s1.31,1.44,3,3.13l24.28,24.28c1.68,1.68,4.44,1.68,6.13,0
				l24.28-24.28c1.68-1.68,3.03-3.09,3-3.13c-0.04-0.04-2.01-0.06-4.4-0.06H92.55z"/>
			<path class="st3" d="M37.81,89.68c0-2.38-1.38-5.71-3.06-7.39l-4.84-4.84c-1.68-1.68-1.68-4.44,0-6.13l4.84-4.84
				c1.68-1.68,3.06-5.01,3.06-7.39V48.44c0-2.38-0.03-4.36-0.06-4.4s-1.44,1.31-3.13,3L10.34,71.32c-1.68,1.68-1.68,4.44,0,6.13
				l24.28,24.28c1.68,1.68,3.09,3.03,3.13,3s0.06-2.01,0.06-4.4V89.68z"/>
			<path class="st3" d="M117.58,59.08c0,2.38,1.38,5.71,3.06,7.39l4.84,4.84c1.68,1.68,1.68,4.44,0,6.13l-4.84,4.84
				c-1.68,1.68-3.06,5.01-3.06,7.39v10.64c0,2.38,0.03,4.36,0.06,4.4c0.04,0.04,1.44-1.31,3.13-3l24.28-24.28
				c1.68-1.68,1.68-4.44,0-6.13l-24.28-24.28c-1.68-1.68-3.09-3.03-3.13-3s-0.06,2.01-0.06,4.4V59.08z"/>
		</g>
	</g>
	<g>
		<g>
			<g>
				<g>
					<g>
						<path class="st4" d="M214.97,117.56V95.07c0-2.44-1.43-4.34-4.64-4.34c-1.61,0-2.97,0.48-4.05,1.55v25.29H197V94.95
							c0-2.56-1.79-4.22-5-4.22c-1.67,0-2.62,0.18-3.75,0.59v26.24h-9.28V87.27c3.57-1.61,7.38-2.38,12.97-2.38
							c5.3,0,8.33,1.43,10.18,3.21c2.02-1.73,5.3-3.21,10.59-3.21c7.62,0,11.54,4.52,11.54,10.18v22.49H214.97z"/>
						<path class="st4" d="M238.71,104.77c0.65,4.7,3.04,7.02,7.74,7.02c3.75,0,6.6-0.83,8.33-1.73l2.08,5.77
							c-2.5,1.25-6.07,2.32-11.48,2.32c-9.82,0-15.47-6.49-15.47-16.72c0-10.06,5.24-16.54,14.46-16.54
							c9.28,0,13.98,6.31,13.57,17.14L238.71,104.77z M244,90.37c-3.81,0-6.19,3.27-5.89,9.88l11.19-1.67
							C249.3,92.86,247.4,90.37,244,90.37z M246.09,82.21h-5.06l4.05-8.57c2.74-1.67,7.8-1.79,8.69,0.24L246.09,82.21z"/>
						<path class="st4" d="M281.55,117.56V95.13c0-2.26-1.01-4.46-4.76-4.46c-1.84,0-2.86,0.3-3.93,0.65v26.24h-9.28V87.27
							c3.21-1.43,7.74-2.38,13.45-2.38c10.18,0,13.81,4.34,13.81,10.18v22.49H281.55z"/>
						<path class="st4" d="M310.17,118.16c-9.28,0-14.04-3.45-14.04-10.12c0-8.27,8.27-10.71,17.91-11.6v-1.49
							c0-3.33-2.26-4.28-5.65-4.28c-3.09,0-6.25,1.01-8.33,1.96l-2.02-5.3c2.26-0.95,6.43-2.44,12.08-2.44
							c7.26,0,12.61,3.03,12.61,11.72v19.16C320.05,117.2,315.7,118.16,310.17,118.16z M314.04,100.72
							c-5.59,0.54-9.22,1.84-9.22,6.96c0,3.75,2.14,5.36,5.83,5.36c1.37,0,2.56-0.24,3.39-0.65V100.72z"/>
						<path class="st4" d="M344.98,91.56c-2.26-0.95-4.64-0.89-6.19-0.18v26.18h-9.28V87.27c3.57-1.73,8.57-2.68,17.2-2.26
							L344.98,91.56z"/>
						<path class="st4" d="M361.94,118.16c-9.28,0-14.04-3.45-14.04-10.12c0-8.27,8.27-10.71,17.91-11.6v-1.49
							c0-3.33-2.26-4.28-5.65-4.28c-3.09,0-6.25,1.01-8.33,1.96l-2.02-5.3c2.26-0.95,6.43-2.44,12.08-2.44
							c7.26,0,12.61,3.03,12.61,11.72v19.16C371.81,117.2,367.47,118.16,361.94,118.16z M365.8,100.72
							c-5.59,0.54-9.22,1.84-9.22,6.96c0,3.75,2.14,5.36,5.83,5.36c1.37,0,2.56-0.24,3.39-0.65V100.72z"/>
						<path class="st4" d="M398.87,118.01c-1.75,0-3.62-0.34-4.75-0.73v12.43h-4.92V88.68c2.03-1.19,5.14-2.15,9.5-2.15
							c8.59,0,13.45,5.99,13.45,15.32C412.15,111.96,406.89,118.01,398.87,118.01z M398.47,89.52c-1.87,0-3.17,0.34-4.35,0.85v23.91
							c0.96,0.4,2.2,0.68,3.73,0.68c6.16,0,9.33-4.8,9.33-12.89C407.18,94.33,404.91,89.52,398.47,89.52z"/>
						<path class="st4" d="M430.69,90.37c-2.49-0.73-5.31-0.51-6.95,0.57v26.62h-4.97V88.73c3-1.53,5.88-2.32,13.11-2.15
							L430.69,90.37z"/>
						<path class="st4" d="M439.51,104.22c0.56,6.9,3.79,10.29,9.27,10.29c3.45,0,5.94-0.85,7.52-1.75l1.3,3.28
							c-1.87,1.13-5.09,2.09-9.21,2.09c-7.97,0-13.57-5.03-13.57-15.88c0-10.34,5.09-15.71,12.27-15.71
							c7.29,0,11.7,4.75,11.59,14.92L439.51,104.22z M446.91,89.75c-4.41,0-7.69,3.56-7.57,11.81l14.58-2.2
							C453.92,92.46,451.27,89.75,446.91,89.75z M447.59,83.76h-2.83l3.96-7.74c2.03-1.24,4.8-1.3,5.31,0.06L447.59,83.76z"/>
						<path class="st4" d="M471.62,90.2v27.36h-4.97V90.2h-3.5v-3.11h3.5v-4.3c0-5.99,3.62-9.89,10.29-9.61v3.17
							c-3,0.17-5.31,1.58-5.31,5.88v4.86h5.31v3.11H471.62z"/>
						<path class="st4" d="M491.23,118.13c-7.91,0-11.59-3.45-11.59-8.99c0-8.08,7.57-10.46,17.01-11.42v-1.87
							c0-4.69-2.83-6.05-6.73-6.05c-2.94,0-5.65,1.07-7.35,1.92l-1.19-2.94c1.75-0.96,5.14-2.26,9.33-2.26
							c5.65,0,10.63,2.43,10.63,9.89v19.56C499.03,117.28,495.47,118.13,491.23,118.13z M496.66,100.26
							c-7.69,0.96-12.27,2.6-12.27,8.76c0,4.41,2.71,6.22,7.23,6.22c1.92,0,3.79-0.34,5.03-1.02V100.26z"/>
					</g>
					<g>
						<path class="st4" d="M497.98,39.72c-2.71-2.7-6.03-4.06-9.86-4.06c-3.12,0-5.77,0.87-7.89,2.59
							c-0.07,0.05-0.57,0.54-4.67,4.94c-1.63,1.76-3.38,2.72-5.23,2.84c-1.79-0.17-2.74-1.25-2.74-3.07V32.33l-8.32,2.11v8.65
							c0,1.69-0.89,2.74-2.54,2.93l-66.82,0.01c-1.64-0.23-2.49-1.22-2.49-2.79V17.9l-8.27,2.09v25.18c0,3.35,1.07,5.83,3.27,7.62
							c1.67,1.4,3.81,2.24,6.39,2.49l0.57,0.09h67.91l0.25-0.03c2.25-0.12,4.04-0.87,5.5-2.26l0.46-0.43l0.43,0.44
							c1.37,1.37,3.39,2.13,6,2.25l0.19,0.01l0.02,0l0.24,0.01h0.01l0.23-0.04c1.37-0.11,2.57-0.51,3.51-1.19l0.72-0.52l0.24,0.85
							c0.84,2.69,2.48,4.87,4.94,6.48c2.47,1.63,5.19,2.46,8.07,2.46c3.78,0,7.08-1.38,9.82-4.1c2.74-2.71,4.12-6,4.12-9.78
							C502.07,45.71,500.69,42.41,497.98,39.72z M491.49,52.9c-0.93,0.94-2.06,1.41-3.36,1.41c-1.32,0-2.49-0.45-3.47-1.36
							c-1-0.92-1.5-2.07-1.5-3.41c0-1.34,0.5-2.5,1.49-3.44c0.98-0.93,2.16-1.41,3.48-1.41c1.33,0,2.49,0.48,3.4,1.42
							c0.92,0.94,1.37,2.09,1.37,3.43C492.9,50.82,492.43,51.96,491.49,52.9z"/>
						<path class="st4" d="M463.63,26.42c1,0,1.85-0.36,2.6-1.11c0.76-0.74,1.12-1.59,1.12-2.6c0-1-0.36-1.85-1.12-2.59
							c-0.75-0.75-1.59-1.11-2.6-1.11c-0.99,0-1.83,0.36-2.58,1.11c-0.75,0.75-1.11,1.59-1.11,2.59c0,1.04,0.35,1.9,1.07,2.63
							C461.74,26.06,462.6,26.42,463.63,26.42z"/>
						<path class="st4" d="M334.58,24.67c0.92,0,1.69-0.33,2.34-1.01c0.67-0.68,0.99-1.48,0.99-2.44c0-0.92-0.32-1.7-0.99-2.41
							c-0.66-0.69-1.43-1.03-2.34-1.03c-0.95,0-1.75,0.34-2.43,1.02c-0.68,0.68-1.01,1.48-1.01,2.43c0,0.96,0.34,1.75,1.01,2.43
							C332.83,24.34,333.63,24.67,334.58,24.67z"/>
						<path class="st4" d="M345.99,24.67c0.91,0,1.66-0.34,2.34-1.03c0.66-0.7,0.99-1.49,0.99-2.42c0-0.92-0.33-1.7-0.99-2.41
							c-0.68-0.69-1.42-1.03-2.34-1.03c-0.95,0-1.77,0.34-2.47,1.03c-0.69,0.68-1.03,1.47-1.03,2.42c0,0.95,0.34,1.75,1.03,2.43
							C344.21,24.34,345.03,24.67,345.99,24.67z"/>
						<path class="st4" d="M350.08,32.72c-0.45-0.45-0.97-0.89-1.57-1.34l-0.14-0.15c-0.05-0.1-0.09-0.12-0.09-0.12
							c-0.42-0.27-0.88-0.54-1.42-0.82l-0.14-0.08c-0.26-0.12-0.45-0.21-0.62-0.29c-1.14-0.53-2.34-0.89-3.6-1.08l-0.3-0.04
							c-0.32-0.04-0.55-0.08-0.77-0.09c-0.36-0.03-0.73-0.05-1.1-0.05l-0.14,0c-0.47,0.01-0.88,0.02-1.29,0.06l-0.21,0.02
							c-0.44,0.05-0.79,0.1-1.12,0.15l-0.23,0.05c-0.37,0.07-0.72,0.16-1.08,0.27l-0.14,0.04c-0.33,0.1-0.66,0.22-0.97,0.35
							c-1.73,0.68-3.33,1.75-4.74,3.16c-2.74,2.71-4.12,6-4.12,9.78c0,3.82,1.38,7.12,4.09,9.81c0.44,0.45,0.93,0.87,1.57,1.35
							l0.13,0.14c0.06,0.09,0.09,0.12,0.09,0.12c0.42,0.27,0.86,0.53,1.42,0.82l0.13,0.07c0.27,0.14,0.45,0.23,0.65,0.31
							c1.12,0.52,2.32,0.88,3.58,1.07l0.29,0.05l0.2,0.02c0.19,0.03,0.39,0.05,0.59,0.07c0.36,0.02,0.73,0.04,1.1,0.05l0.11,0h0.02
							c0.5,0,0.89-0.03,1.3-0.06l0.31-0.03c0.34-0.04,0.69-0.09,1.01-0.15l0.22-0.05c0.38-0.08,0.75-0.17,1.1-0.27l0.15-0.03
							c0.33-0.1,0.65-0.22,0.96-0.35c1.74-0.69,3.34-1.75,4.76-3.16c2.73-2.7,4.12-6,4.12-9.78
							C354.18,38.66,352.84,35.45,350.08,32.72z M343.69,45.97c-0.99,0.93-2.15,1.4-3.48,1.4c-1.35,0-2.49-0.48-3.42-1.42
							c-0.9-0.94-1.37-2.09-1.37-3.42c0-1.29,0.48-2.43,1.42-3.36c0.94-0.94,2.07-1.41,3.37-1.41c1.33,0,2.49,0.46,3.48,1.37
							c0.99,0.92,1.49,2.07,1.49,3.41C345.19,43.87,344.69,45.03,343.69,45.97z"/>
						<path class="st4" d="M362.08,46.43c0,1.2,0,2.39,0,3.85c-0.21,4.71-1.02,7.62-2.53,8.91c-0.9,0.8-2.33,1.29-4.33,1.48
							c-0.55,0.04-0.92,0.08-1.24,0.11c-0.45,0.05-0.81,0.08-1.37,0.12l-1.01,9.05c6.21-0.4,10.98-2.01,14.17-4.79
							c1.79-1.55,3.07-3.83,3.84-6.79c0.55-2.16,0.81-4.96,0.86-8.82c-0.01-1.4,0-3.13,0-4.85c0-1.3,0.01-2.58,0-3.73l-8.4,2.11
							C362.09,44.3,362.09,45.36,362.08,46.43z"/>
					</g>
					<g>
						<path class="st4" d="M300.84,33.92v13.32c0,2.92-2.38,5.29-5.29,5.29h-14.91v1.91l-0.06-1.9c-2.58,0.05-5.11-1.85-6.83-3.61
							l-1.96-2.38l-3.05,2.26c0.08,0.13,0.84,1.26,2.13,2.62l0.42,0.5c0.44,0.44,4.13,4.53-2.04,11.27l-10.55,9.66l2.57,2.8
							l10.62-9.71l0.11-0.12c3.7-4.01,4.68-7.53,4.56-10.3c1.28,0.53,2.65,0.84,4.12,0.8l0,0h14.87c5.02,0,9.09-4.08,9.09-9.1V33.92
							H300.84z"/>
						<path class="st4" d="M302.37,59.92c-1.18,0-2.13,0.96-2.13,2.14c0,1.18,0.95,2.15,2.13,2.15c1.18,0,2.15-0.96,2.15-2.15
							C304.52,60.87,303.55,59.92,302.37,59.92z"/>
						<path class="st4" d="M244.47,59.92c-1.18,0-2.14,0.96-2.14,2.14c0,1.19,0.95,2.15,2.14,2.15c1.18,0,2.14-0.96,2.14-2.15
							C246.61,60.87,245.64,59.92,244.47,59.92z"/>
						<path class="st4" d="M252.51,59.92c-1.18,0-2.14,0.96-2.14,2.14c0,1.19,0.96,2.15,2.14,2.15c1.18,0,2.14-0.96,2.14-2.15
							C254.65,60.87,253.68,59.92,252.51,59.92z"/>
						<path class="st4" d="M204.48,26.56c1.18,0,2.14-0.96,2.14-2.14c0-1.18-0.96-2.15-2.14-2.15s-2.14,0.96-2.14,2.15
							C202.34,25.6,203.3,26.56,204.48,26.56z"/>
						<path class="st4" d="M251.59,47.24c0,2.92-2.37,5.29-5.29,5.29h-35.97c1.87-1.53,3.33-3.48,4.27-5.8l-0.04-0.02
							c0.52-1.29,0.82-2.69,0.82-4.17c0-6.24-5.07-11.32-11.32-11.32c-6.24,0-11.31,5.08-11.31,11.32c0,4.33,2.44,8.09,6.02,9.99
							h-11.04c-2.92,0-5.29-2.38-5.29-5.29V18.65h-3.81v28.59c0,5.02,4.07,9.1,9.1,9.1h14.41c0.12-0.02,1.73-0.26,1.86-1.88h0.02
							c-0.1,1.63,1.7,1.86,1.85,1.88h40.44c5.02,0,9.09-4.08,9.09-9.1V33.92h-3.8V47.24z M204.06,50.05c-4.14,0-7.51-3.37-7.51-7.51
							c0-4.14,3.37-7.51,7.51-7.51c4.14,0,7.51,3.37,7.51,7.51c0,1.29-0.32,2.5-0.89,3.56c-0.01,0.01-0.01,0.01-0.01,0.01
							C209.37,48.46,206.9,50.05,204.06,50.05z"/>
					</g>
				</g>
			</g>
		</g>
	</g>
</g>
</svg>
