<?xml version="1.0" encoding="UTF-8"?><svg id="Livello_2" xmlns="http://www.w3.org/2000/svg" viewBox="0 0 417.5 68.68"><defs><style>.cls-1{fill:#e30613;}.cls-2{fill:#1d1d1b;}</style></defs><g id="Livello_1-2"><path class="cls-2" d="m411.59,23.72c2.71,0,4.87-2.18,4.87-4.87s-2.17-4.9-4.87-4.9-4.87,2.18-4.87,4.9,2.15,4.87,4.87,4.87m0-1.16c-2.13,0-3.72-1.55-3.72-3.72s1.59-3.74,3.72-3.74,3.72,1.55,3.72,3.74-1.62,3.72-3.72,3.72m1.11-3.39c.9-.06,1.38-.44,1.38-1.38,0-1.34-.8-1.55-1.97-1.55h-2.46v5.07h1.13v-2.14h.79l1.13,2.14h1.23l-1.23-2.14Zm-1.92-.76v-1.28h1.09c.49,0,1.14,0,1.14.52,0,.64-.32.76-.89.76h-1.35Z"/><path class="cls-2" d="m88.85,13.87h25.92c10.44,0,13.82,4.76,13.82,11.12,0,5.33-2.92,8.66-6.77,9.86v.11c4.87,1.03,5.96,5.28,5.96,11.07,0,1.95.06,6.54,1.72,8.77h-9.29c-.63-1.15-1.03-3.21-1.03-6.19,0-5.85-.8-9.98-7.11-9.98h-14.62v16.17h-8.6V13.87Zm23.45,18.35c4.76,0,7.34-1.43,7.34-6.02,0-4.24-2.81-5.91-7.34-5.91h-14.85v11.93h14.85Z"/><path class="cls-2" d="m135.23,13.87h8.6v23.11c0,5.68.23,12.56,11.41,12.56s11.47-6.88,11.47-12.56V13.87h8.6v23.34c0,6.77-.23,18.75-20.07,18.75s-20.01-11.98-20.01-18.75V13.87Z"/><path class="cls-2" d="m183.34,13.87h8.6v34.17h24.88v6.77h-33.48V13.87Z"/><path class="cls-2" d="m221.58,13.87h12.38l14.33,31.76,14.22-31.76h12.27v40.94h-8.08l.34-33.83h-.11l-15.14,33.83h-7.34l-15.02-33.83h-.11l.34,33.83h-8.08V13.87Z"/><path class="cls-2" d="m283.16,13.87h35.55v6.42h-26.95v10.32h25.86v6.42h-25.86v11.35h27.41v6.42h-36.01V13.87Z"/><path class="cls-2" d="m359.31,29.01c-.86-6.19-5.96-9.86-13.19-9.86-7.91,0-13.82,5.27-13.82,15.94,0,8.54,5.91,14.45,14.39,14.45,8.94,0,11.93-6.08,12.61-10.38h9.29c-1.2,8.14-6.54,16.8-23.39,16.8-14.79,0-21.85-10.09-21.85-21.62s6.77-21.62,22.88-21.62c14.1,0,21.44,7.45,22.36,16.28h-9.29Z"/><path class="cls-2" d="m389.06,13.87h10.21l18.23,40.94h-9.58l-4.3-10.15h-19.27l-4.24,10.15h-9.29l18.23-40.94Zm11.98,24.37l-7-17.26-7.11,17.26h14.1Z"/><path class="cls-1" d="m66.71,59.34l-40.87-23.34h26c9.58-.64,16.84-8.98,16.84-17.99C68.68,8.35,61.7-.04,51.63,0H4.43C2,0-.02,2.57,0,5.44c.02,2.83,2.14,5.19,4.43,5.19h46.33c4.16,0,6.57,3.82,6.64,7.56.07,3.86-2.95,7.4-6.61,7.4H4.23s-.43,0-.43,0C1.71,25.59-.02,28.08,0,30.54c.02,1.76.7,3.08,2.23,4.25h0c.19.15.39.3.62.45l57.71,32.5c2.21,1.51,5,1.18,6.79-.79,2-2.2,1.69-5.78-.65-7.61Z"/></g></svg>