<svg xmlns="http://www.w3.org/2000/svg" width="250" height="69.407"><g data-name="Groupe 2"><g data-name="Groupe 1" fill="#fff"><path data-name="Tracé 1" d="M95.574 59.693L78.621 45.35v14.043h-6.055V32.22L89.52 46.562V32.523h6.054z"/><path data-name="Tracé 2" d="M101.121 45.957a13.737 13.737 0 1113.737 13.736 13.76 13.76 0 01-13.737-13.736zm21.382 0a7.649 7.649 0 10-7.645 7.909 7.731 7.731 0 007.645-7.909z"/><path data-name="Tracé 3" d="M148.33 32.523h6.737l-12.678 27.17-12.677-27.17h6.735l5.942 13.434z"/><path data-name="Tracé 4" d="M192.561 53.866a7.825 7.825 0 006.661-3.747l4.58 3.747a13.737 13.737 0 110-15.819l-4.58 3.747a7.825 7.825 0 00-6.661-3.747 7.914 7.914 0 000 15.819z"/><path data-name="Tracé 5" d="M215.702 59.393h-6.093v-26.87h6.093z"/><path data-name="Tracé 6" d="M250 32.22v27.173h-6.055V46.222l-7.342 7.341-7.341-7.341v13.171h-6.055V32.22l13.4 13.434z"/><path data-name="Tracé 7" d="M164.606 44.708l-6.888 14.685h-6.358l13.246-27.171 13.245 27.171h-6.359z"/></g><path data-name="Tracé 8" d="M45.258 69.407l-32.1-54.827H0v44.108h13.147v-21.46L32.11 69.407z" fill="#fff"/><path data-name="Tracé 9" d="M43.603 14.58v21.875L21.874 0H8.73l34.63 58.688h13.394V14.58z" fill="#009ede"/></g></svg>