<?xml version="1.0" encoding="utf-8"?>
<!-- Generator: Adobe Illustrator 24.0.1, SVG Export Plug-In . SVG Version: 6.00 Build 0)  -->
<svg version="1.0" id="Layer_1" xmlns="http://www.w3.org/2000/svg" xmlns:xlink="http://www.w3.org/1999/xlink" x="0px" y="0px"
	 viewBox="0 0 642 468" style="enable-background:new 0 0 642 468;" xml:space="preserve">
<style type="text/css">
	.st0{fill:#EF5E1D;}
	.st1{fill:#6D7B86;}
	.st2{fill:none;stroke:#FFFFFF;stroke-miterlimit:10;}
</style>
<g>
	<g>
		<path class="st0" d="M336.14,311.03H180v-282h69.93c-30.74,9.1-53.18,37.88-53.18,72c0,33.81,12.09,61.36,52.36,71.76
			c0.02,0.01,0.05,0.01,0.07,0.02c0,0,0,0,0.01,0c0.41,0.09,2.32,0.57,5.37,1.42c8.89,2.5,27.22,8.37,46.68,17.41
			C345.46,212.18,392.92,251.61,336.14,311.03z"/>
		<path class="st1" d="M462,29.03v282h-84.41c71.52-14.92,75.72-73.34,64.97-102.62c-11.45-31.25-46.94-44.28-112.6-62.52
			c-14.32-3.98-26.26-8.38-36.16-13.08c26.47-2.42,47.2-24.68,47.2-51.78c0-28.72-23.28-52-52-52C289,29.03,462,29.03,462,29.03z"/>
		<path class="st2" d="M243.99,167c-0.05-0.01-0.07-0.02-0.07-0.02"/>
		<path class="st0" d="M341,81.03c0,27.1-20.73,49.36-47.2,51.78c-1.58,0.15-3.18,0.22-4.8,0.22c-28.72,0-52-23.28-52-52
			c0-23.19,15.18-42.83,36.14-49.53c5-1.61,10.33-2.47,15.86-2.47C317.72,29.03,341,52.31,341,81.03z"/>
	</g>
	<g>
		<path class="st1" d="M95.58,415.38c-2.51,4.14-6.2,7.44-11.09,9.9c-4.88,2.46-10.8,3.7-17.75,3.7c-10.47,0-19.09-2.55-25.87-7.66
			c-6.78-5.1-10.47-12.23-11.09-21.38H53.8c0.35,3.52,1.6,6.29,3.76,8.31c2.15,2.03,4.9,3.04,8.25,3.04c2.9,0,5.19-0.79,6.86-2.38
			c1.67-1.58,2.51-3.7,2.51-6.33c0-2.38-0.77-4.36-2.31-5.94c-1.54-1.58-3.45-2.88-5.74-3.89s-5.46-2.22-9.5-3.63
			c-5.9-2.02-10.71-3.98-14.45-5.87c-3.74-1.89-6.95-4.71-9.63-8.45c-2.69-3.74-4.03-8.6-4.03-14.58c0-5.54,1.41-10.34,4.22-14.39
			c2.81-4.05,6.71-7.15,11.68-9.3c4.97-2.16,10.67-3.23,17.09-3.23c10.38,0,18.63,2.46,24.75,7.39c6.11,4.93,9.57,11.7,10.36,20.33
			H73.2c-0.44-3.08-1.56-5.52-3.37-7.33c-1.8-1.8-4.25-2.71-7.33-2.71c-2.64,0-4.77,0.71-6.4,2.11c-1.63,1.41-2.44,3.48-2.44,6.2
			c0,2.2,0.73,4.07,2.18,5.61c1.45,1.54,3.28,2.79,5.48,3.76s5.37,2.2,9.5,3.7c5.98,2.03,10.87,4.03,14.65,6.01s7.04,4.86,9.77,8.64
			c2.73,3.78,4.09,8.71,4.09,14.78C99.34,406.71,98.08,411.24,95.58,415.38z"/>
		<path class="st1" d="M180.18,339.42c7.17,4.09,12.82,9.77,16.96,17.03c4.13,7.26,6.2,15.46,6.2,24.61s-2.09,17.38-6.27,24.68
			c-4.18,7.3-9.86,13-17.03,17.09s-15.11,6.14-23.82,6.14s-16.65-2.05-23.82-6.14c-7.17-4.09-12.85-9.79-17.03-17.09
			s-6.27-15.53-6.27-24.68s2.09-17.36,6.27-24.61c4.18-7.26,9.85-12.93,17.03-17.03c7.17-4.09,15.11-6.14,23.82-6.14
			C165.02,333.28,173,335.33,180.18,339.42z M138.6,361.46c-4.36,4.8-6.53,11.33-6.53,19.6c0,8.18,2.18,14.7,6.53,19.53
			c4.36,4.84,10.23,7.26,17.62,7.26c7.3,0,13.15-2.42,17.55-7.26c4.4-4.84,6.6-11.35,6.6-19.53s-2.18-14.69-6.53-19.53
			s-10.23-7.26-17.62-7.26S142.96,356.67,138.6,361.46z"/>
		<path class="st1" d="M298.89,428.05h-22.57l-37.75-57.28v57.28H216v-93.31h22.57l37.75,57.81v-57.81h22.57V428.05z"/>
		<path class="st1" d="M372.28,411.02H337.3l-5.81,17.03h-23.76l34.18-92.65h26l34.18,92.65h-24.02L372.28,411.02z M366.47,393.86
			l-11.61-34.32l-11.75,34.32H366.47z"/>
		<path class="st1" d="M474.1,415.38c-2.51,4.14-6.2,7.44-11.09,9.9c-4.88,2.46-10.8,3.7-17.75,3.7c-10.47,0-19.09-2.55-25.87-7.66
			c-6.78-5.1-10.47-12.23-11.09-21.38h24.02c0.35,3.52,1.6,6.29,3.76,8.31c2.16,2.03,4.9,3.04,8.25,3.04c2.9,0,5.19-0.79,6.86-2.38
			c1.67-1.58,2.51-3.7,2.51-6.33c0-2.38-0.77-4.36-2.31-5.94c-1.54-1.58-3.45-2.88-5.74-3.89c-2.29-1.01-5.46-2.22-9.5-3.63
			c-5.9-2.02-10.71-3.98-14.45-5.87c-3.74-1.89-6.95-4.71-9.63-8.45c-2.69-3.74-4.03-8.6-4.03-14.58c0-5.54,1.41-10.34,4.22-14.39
			c2.81-4.05,6.71-7.15,11.68-9.3c4.97-2.16,10.67-3.23,17.09-3.23c10.38,0,18.63,2.46,24.75,7.39c6.12,4.93,9.57,11.7,10.36,20.33
			h-24.42c-0.44-3.08-1.56-5.52-3.37-7.33c-1.8-1.8-4.25-2.71-7.33-2.71c-2.64,0-4.77,0.71-6.4,2.11c-1.63,1.41-2.44,3.48-2.44,6.2
			c0,2.2,0.73,4.07,2.18,5.61c1.45,1.54,3.28,2.79,5.48,3.76s5.37,2.2,9.5,3.7c5.98,2.03,10.87,4.03,14.65,6.01s7.04,4.86,9.77,8.64
			c2.73,3.78,4.09,8.71,4.09,14.78C477.86,406.71,476.61,411.24,474.1,415.38z"/>
		<path class="st1" d="M512.97,334.73v93.31H490.4v-93.31H512.97z"/>
		<path class="st1" d="M606.61,405.54c-3.92,7.08-9.55,12.6-16.89,16.56c-7.35,3.96-15.99,5.94-25.93,5.94h-35.24v-93.31h35.24
			c10.03,0,18.7,1.94,26,5.81s12.91,9.33,16.83,16.37c3.91,7.04,5.87,15.13,5.87,24.28C612.48,390.34,610.52,398.46,606.61,405.54z
			 M582.32,400.86c4.88-4.66,7.33-11.22,7.33-19.67s-2.44-15-7.33-19.67c-4.88-4.66-11.73-7-20.52-7h-10.69v53.32h10.69
			C570.6,407.85,577.44,405.52,582.32,400.86z"/>
	</g>
</g>
</svg>
