<?xml version="1.0" encoding="UTF-8"?>
<svg id="Livello_2" data-name="Livello 2" xmlns="http://www.w3.org/2000/svg" viewBox="0 0 47.8 47.8">
  <defs>
    <style>
      .cls-1 {
        fill: #e30613;
      }
    </style>
  </defs>
  <g id="Livello_1-2" data-name="Livello 1">
    <path class="cls-1" d="m46.43,41.29l-28.44-16.24h18.09c6.66-.44,11.72-6.25,11.72-12.52C47.8,5.81,42.94-.03,35.93,0H3.09C1.39,0-.02,1.79,0,3.78c.02,1.97,1.49,3.61,3.09,3.61h32.24c2.9,0,4.57,2.66,4.62,5.26.05,2.69-2.05,5.15-4.6,5.15H2.94s-.3,0-.3,0C1.19,17.81-.01,19.54,0,21.25c.01,1.23.49,2.14,1.55,2.96h0c.13.1.27.21.43.31l40.16,22.62c1.54,1.05,3.48.82,4.73-.55,1.39-1.53,1.18-4.03-.45-5.3"/>
  </g>
</svg>